<svg xmlns="http://www.w3.org/2000/svg" width="600" height="270.712" viewBox="0 0 600 270.712"><path d="M0 67.742h2.151V2.151h65.12V0H0v67.742zm268.09 200.819h-65.12v2.15h67.27V202.97h-2.15v65.59zm58.899-228.39h-2.893v28.925h12.533V66.3h-9.64V40.17zm19.714 23.14l-4.676-13.499h-3.035l6.218 17.646-.097.336c-.867 3.117-1.815 5.304-2.844 6.556-1.03 1.254-2.073 1.88-3.134 1.88h-.288a2.395 2.395 0 0 0-.29-.046v2.506c.128 0 .273.014.435.048h.433c1.67 0 3.182-.804 4.53-2.411 1.351-1.607 2.62-4.097 3.81-7.472l6.7-19.043h-3.037l-4.725 13.499zm19.767 3.567c-1.897 0-3.262-.618-4.096-1.855-.836-1.237-1.254-3.094-1.254-5.569 0-2.7.45-4.61 1.35-5.737.9-1.123 2.12-1.686 3.664-1.686 1.027 0 1.798.273 2.313.819.515.546.771 1.27.771 2.17v.384a2.11 2.11 0 0 0-.046.387h2.554c.063-.418.097-.836.097-1.254 0-1.51-.492-2.754-1.47-3.735-.982-.981-2.387-1.47-4.219-1.47-2.443 0-4.371.819-5.785 2.457-1.416 1.639-2.122 4.195-2.122 7.665 0 3.28.683 5.785 2.049 7.52s3.239 2.603 5.617 2.603a9.622 9.622 0 0 0 3.325-.577c1.06-.385 1.977-.851 2.75-1.397v-3.135c-.612.708-1.464 1.286-2.557 1.736-1.092.45-2.073.674-2.94.674zM391.2 38.29h-3.18l-5.689 7.185h2.844l6.025-7.185zm-.336 20.923c.32-.513.578-1.116.77-1.807.194-.691.29-1.405.29-2.145 0-.773-.113-1.51-.337-2.218a5.258 5.258 0 0 0-1.084-1.905c-.5-.561-1.166-1.004-2.002-1.326-.836-.319-1.832-.48-2.99-.48-2.537 0-4.547.827-6.024 2.482-1.479 1.656-2.218 4.202-2.218 7.64 0 3.248.705 5.745 2.121 7.497 1.414 1.752 3.374 2.626 5.882 2.626 1.22 0 2.386-.19 3.493-.577 1.11-.385 2.082-.851 2.918-1.397v-3.135c-.674.708-1.575 1.286-2.7 1.736-1.125.45-2.152.674-3.085.674-1.993 0-3.447-.618-4.363-1.855-.916-1.237-1.374-3.094-1.374-5.569v-.241h10.703zm-8.655-6.122c.885-.707 1.985-1.06 3.303-1.06 1.222 0 2.121.281 2.7.844.579.56.868 1.26.868 2.097 0 .546-.113 1.077-.338 1.59h-8.34c.32-1.607.923-2.763 1.807-3.47zm23.744 13.787c-1.994 0-3.447-.618-4.363-1.855-.916-1.237-1.374-3.094-1.374-5.569v-.241h10.703c.319-.513.577-1.116.77-1.807s.29-1.405.29-2.145c0-.773-.113-1.51-.338-2.218a5.258 5.258 0 0 0-1.084-1.905c-.5-.561-1.165-1.004-2.002-1.326-.836-.319-1.831-.48-2.989-.48-2.537 0-4.548.827-6.024 2.482-1.48 1.656-2.219 4.202-2.219 7.64 0 3.248.706 5.745 2.122 7.497 1.414 1.752 3.374 2.626 5.882 2.626 1.22 0 2.386-.19 3.493-.577 1.11-.385 2.082-.851 2.918-1.397v-3.135c-.674.708-1.576 1.286-2.7 1.736-1.125.45-2.153.674-3.085.674zm-3.689-13.787c.884-.707 1.985-1.06 3.302-1.06 1.223 0 2.122.281 2.702.844.577.56.867 1.26.867 2.097 0 .546-.113 1.077-.338 1.59h-8.34c.32-1.607.923-2.763 1.807-3.47z" fill="#09302a"/><path d="M13.157 49.69h7.486v38.397h-7.486v81.89h11.702v13.552H13.157v73.802h243.757V89.571h-36.805V76.019h36.805V60.725h-36.805V47.174h36.805v-33.6H13.157v36.117zM252.87 231.907h-13.552v-38.418h13.552v38.418zM227.1 110.78h13.552v38.418H227.1V110.78zM93.133 238.682H54.737V225.13h38.396v13.552zm-47.28-26.673V173.59h13.551v38.418H45.853zm55.454-17.38h-13.53v-38.397h13.53v38.396zm41.687 44.053h-38.417V225.13h38.417v13.552zm-24.285-27.813v-38.397h13.552v38.397h-13.552zm24.285-75.416h-38.417V121.9h38.417v13.552zm51.776 103.229h-38.418V225.13h38.418v13.552zm6.776-33.47h-38.418V191.66h38.418v13.551zm-42.72-26.889v-38.396h13.552v38.396h-13.552zm44.355 0h-13.552v-38.396h13.552v38.396zm2.366-57.82h-38.418v-13.53h38.418v13.53zM164.31 92.367V53.95h13.53v38.417h-13.53zM194.77 53.95h13.552v38.417H194.77V53.95zm-42.892-35.923h38.396v13.53h-38.396v-13.53zm-8.884 87.87h-38.417v-13.53h38.417v13.53zm-19.209-71.995h13.552v38.396h-13.552V33.902zM69.3 60.962h38.418v13.552H69.3V60.962zM54.737 92.367h38.396v13.53H54.737v-13.53zm0 29.534h38.396v13.552H54.737V121.9zm-17.467-88h14.133v38.397H37.27V33.902zm-9.723 79.095h13.53v38.418h-13.53v-38.418zm318.972 47.213c2.95 0 5.636-.313 8.05-.937 2.41-.626 4.858-1.605 7.335-2.94v-13.415c0-2.349.216-3.922.647-4.72.626-1.12 1.779-1.681 3.46-1.681h.806v-1.227h-16.969v1.227c1.767 0 3 .179 3.701.534.7.355 1.217.873 1.55 1.552.335.678.503 2.117.503 4.315v12.67a18.662 18.662 0 0 1-4.363 1.81c-1.509.409-3.071.615-4.687.615-2.76 0-5.447-.803-8.064-2.41-2.62-1.604-4.737-4.132-6.353-7.579s-2.424-7.262-2.424-11.442c0-5.15 1.217-9.59 3.653-13.316 2.908-4.417 7.153-6.627 12.734-6.627 4.095 0 7.445 1.26 10.054 3.78 1.809 1.746 3.285 4.345 4.428 7.792h1.13l-1.13-13.835h-1.197c-.063 1.099-.242 1.838-.534 2.214-.29.379-.64.565-1.05.565-.41 0-1.216-.224-2.424-.678-2.39-.882-4.24-1.454-5.544-1.712-1.302-.258-2.752-.389-4.346-.389-4.376 0-8.167.937-11.377 2.813-3.836 2.262-6.854 5.495-9.052 9.697-1.852 3.533-2.779 7.23-2.779 11.087 0 5.32 1.65 10.02 4.945 14.09 4.397 5.431 10.829 8.147 19.297 8.147zm50.564-43.636h1.649c1.66 0 2.91.474 3.75 1.422.602.69.905 2.403.905 5.14v17.746c0 4.653-.416 7.955-1.246 9.907-.83 1.95-2.376 3.55-4.638 4.8s-4.827 1.873-7.692 1.873c-2.242 0-4.132-.399-5.672-1.195-1.542-.798-2.72-1.81-3.54-3.04-.819-1.226-1.384-2.94-1.697-5.138-.313-2.197-.469-4.148-.469-5.85v-19.103c0-2.456.27-4.073.81-4.848.774-1.143 2.066-1.714 3.877-1.714h1.68v-1.196h-18.94v1.196h1.648c1.66 0 2.861.42 3.605 1.26.743.842 1.115 2.609 1.115 5.302v17.13c0 5.282.343 8.88 1.034 10.796 1.033 2.802 2.79 5.033 5.268 6.692 2.479 1.658 6.109 2.488 10.892 2.488 4.397 0 7.871-.868 10.425-2.601 2.553-1.735 4.267-3.815 5.139-6.239.873-2.424 1.31-5.833 1.31-10.23v-17.778c0-2.434.225-3.987.679-4.655.926-1.443 2.25-2.165 3.974-2.165h1.65v-1.196h-15.516v1.196zm22.945 18.456c1.584 1.25 4.25 2.926 8 5.027 3.749 2.1 6.045 3.474 6.885 4.121 1.25.95 2.17 1.973 2.763 3.071s.888 2.187.888 3.265c0 1.938-.78 3.619-2.342 5.041-1.563 1.422-3.69 2.134-6.384 2.134-2.327 0-4.466-.516-6.415-1.552-1.952-1.034-3.401-2.332-4.349-3.895-.949-1.563-1.701-3.915-2.262-7.062h-1.195v15.03h1.195c.151-1.012.382-1.68.695-2.004.311-.323.738-.485 1.278-.485.558 0 1.89.34 3.99 1.019 2.101.678 3.486 1.071 4.154 1.18 1.12.193 2.317.29 3.588.29 4.05 0 7.364-1.201 9.94-3.605 2.573-2.4 3.86-5.262 3.86-8.58 0-1.746-.403-3.416-1.211-5.01-.807-1.595-1.96-2.98-3.458-4.154s-4.294-2.86-8.388-5.058c-5.02-2.693-8.199-4.848-9.535-6.466-.926-1.098-1.39-2.315-1.39-3.65 0-1.746.733-3.303 2.197-4.672 1.466-1.368 3.32-2.053 5.56-2.053 1.983 0 3.901.506 5.754 1.519 1.853 1.015 3.281 2.382 4.283 4.105 1.002 1.724 1.698 4.041 2.084 6.95h1.197v-15.16h-1.197c-.214 1.013-.5 1.687-.857 2.021-.355.334-.813.5-1.374.5-.495 0-1.346-.269-2.552-.807-2.607-1.142-5.075-1.714-7.403-1.714-3.728 0-6.797 1.137-9.21 3.41-2.415 2.275-3.62 4.984-3.62 8.13 0 1.81.407 3.47 1.226 4.978s2.021 2.888 3.605 4.136zm30.251-14.091c.797-1.164 1.757-1.952 2.876-2.361.861-.3 2.317-.452 4.363-.452h5.27v33.486c0 2.456-.237 4.03-.711 4.72-.776 1.12-2.09 1.68-3.943 1.68h-1.553v1.196h18.587v-1.195h-1.519c-1.704 0-2.964-.454-3.783-1.36-.582-.665-.872-2.348-.872-5.04v-33.487h6.174c1.81 0 3.268.296 4.38.889 1.109.592 1.997 1.514 2.665 2.764.41.775.733 2.067.97 3.878h1.23l-.486-10.279h-35.782l-.517 10.279h1.23c.148-1.981.623-3.555 1.421-4.718zm67.758 29.898l-15.254-36.46h-1.133l-15.416 36.071c-1.338 3.168-2.555 5.269-3.653 6.304-.54.517-1.725.937-3.557 1.26v1.196h13.802v-1.195c-2.111-.151-3.485-.48-4.12-.987-.636-.507-.953-1.093-.953-1.76 0-.841.365-2.112 1.098-3.816l2.973-6.917h16.97l2.65 6.304c.863 2.046 1.294 3.544 1.294 4.493 0 .71-.307 1.313-.923 1.809-.613.496-1.794.788-3.537.874v1.195h17.292v-1.195c-1.79-.11-3.184-.599-4.186-1.47-1.002-.874-2.118-2.776-3.347-5.706zm-25.211-8.694l7.63-17.715 7.433 17.715h-15.063zm105.882 6.075c-1.401 2.695-2.77 4.71-4.107 6.045-1.033 1.013-2.11 1.691-3.23 2.036-1.122.344-2.92.516-5.399.516h-7.434c-1.208 0-2.025-.123-2.456-.371-.433-.246-.733-.582-.905-1.002s-.259-1.599-.259-3.538v-14.45h9.632c1.832 0 3.189.216 4.073.647.882.433 1.519 1.025 1.907 1.78.3.602.603 1.97.906 4.104h1.195v-15.257h-1.195c-.13 2.5-.756 4.245-1.876 5.237-.84.754-2.51 1.13-5.01 1.13h-9.632V117.77h12.024c2.177 0 3.695.162 4.557.485 1.077.452 1.89 1.11 2.44 1.97.551.864 1.051 2.448 1.505 4.752h1.26l-.485-9.6h-47.203v1.196c.258.044.44.075.55.098 1.485.238 2.542.641 3.168 1.212.624.57.937 1.168.937 1.794 0 .969-.507 2.704-1.52 5.204l-10.343 25.373-11.152-25.697c-.992-2.283-1.487-3.964-1.487-5.041 0-.778.302-1.412.905-1.908s1.918-.84 3.943-1.035v-1.196h-17.906v1.196c1.336.109 2.397.35 3.185.729.785.376 1.447.899 1.987 1.567.344.43.937 1.615 1.777 3.554l16.42 37.786h1.196l15.288-37.3c.885-2.177 1.897-3.793 3.04-4.85.796-.71 1.97-1.205 3.523-1.486h1.466c1.81 0 3.103.432 3.878 1.294.56.647.84 2.359.84 5.138v28.476c0 2.134-.124 3.546-.372 4.235-.248.69-.716 1.208-1.405 1.552a6.146 6.146 0 0 1-2.941.744h-1.552v1.195h33.778l3.781-10.99h-1.292zm-245.24 80.568c-1.034 1.013-2.112 1.691-3.231 2.036-1.122.344-2.92.517-5.399.517h-7.434c-1.208 0-2.025-.124-2.456-.372a2.017 2.017 0 0 1-.905-1.002c-.172-.42-.258-1.599-.258-3.538v-14.45h9.63c1.833 0 3.19.216 4.074.647.882.433 1.519 1.025 1.907 1.78.3.602.603 1.97.906 4.104h1.195V203.25h-1.195c-.13 2.5-.756 4.245-1.876 5.237-.84.754-2.51 1.13-5.01 1.13h-9.631v-17.324h12.024c2.176 0 3.695.162 4.556.485 1.077.452 1.89 1.11 2.44 1.97.551.864 1.051 2.448 1.505 4.752h1.26l-.485-9.6h-33.778v1.196h1.552c1.81 0 3.103.432 3.878 1.294.56.647.84 2.359.84 5.138v28.476c0 2.134-.124 3.546-.372 4.235-.248.691-.716 1.208-1.405 1.552a6.146 6.146 0 0 1-2.94.744h-1.553v1.195h33.778l3.781-10.99h-1.292c-1.4 2.695-2.77 4.71-4.107 6.045zm6.316-37.69h1.55c1.036 0 2.025.26 2.975.778.668.387 1.109.85 1.325 1.389.28.712.42 2.178.42 4.396v28.315c0 2.63-.258 4.29-.775 4.978-.819 1.055-2.134 1.584-3.945 1.584h-1.55v1.195h18.78v-1.195h-1.584a5.931 5.931 0 0 1-2.943-.777c-.69-.387-1.14-.851-1.357-1.389-.28-.712-.42-2.176-.42-4.396v-28.315c0-2.628.269-4.287.808-4.978.82-1.055 2.122-1.584 3.912-1.584h1.584V189.9h-18.78v1.196zm19.21-1.195v1.196h1.55a5.99 5.99 0 0 1 2.975.777c.668.387 1.11.85 1.326 1.389.279.712.42 2.178.42 4.396v28.315c0 2.63-.259 4.29-.775 4.978-.82 1.055-2.135 1.584-3.945 1.584h-1.55v1.195h18.81v-1.195h-1.583a6.118 6.118 0 0 1-2.975-.777c-.689-.387-1.14-.851-1.357-1.389-.28-.712-.42-2.176-.42-4.396v-13.77h7.985c1.464 0 2.569.2 3.312.599.744.399 1.326.995 1.746 1.794.42.796.64 2.048.662 3.75h1.197v-14.838h-1.197c-.28 2.393-.845 3.992-1.696 4.8-.853.81-2.193 1.212-4.024 1.212h-7.985v-17.227h9.665c2.283 0 3.97.214 5.058.645a6.448 6.448 0 0 1 2.748 2.086c.744.958 1.395 2.462 1.956 4.508h1.13l-.42-9.632h-32.613zm34.566 0v1.196h1.55a5.99 5.99 0 0 1 2.975.777c.668.387 1.11.85 1.326 1.389.279.712.42 2.178.42 4.396v28.315c0 2.63-.259 4.29-.775 4.978-.82 1.055-2.135 1.584-3.945 1.584h-1.55v1.195h18.81v-1.195h-1.583a6.118 6.118 0 0 1-2.975-.777c-.689-.387-1.14-.851-1.357-1.389-.28-.712-.42-2.176-.42-4.396v-13.77h7.984c1.465 0 2.57.2 3.313.599.744.399 1.326.995 1.746 1.794.42.796.64 2.048.662 3.75h1.197v-14.838h-1.197c-.28 2.393-.845 3.992-1.696 4.8-.853.81-2.193 1.212-4.025 1.212h-7.984v-17.227h9.665c2.283 0 3.97.214 5.058.645a6.448 6.448 0 0 1 2.748 2.086c.744.958 1.395 2.462 1.956 4.508h1.13l-.42-9.632H413.56zm67.015 38.885c-1.034 1.013-2.111 1.691-3.231 2.036-1.122.344-2.92.517-5.399.517h-7.434c-1.208 0-2.025-.124-2.455-.372a2.017 2.017 0 0 1-.906-1.002c-.172-.42-.258-1.599-.258-3.538v-14.45h9.631c1.832 0 3.189.216 4.073.647.883.433 1.52 1.025 1.908 1.78.3.602.603 1.97.905 4.104h1.195V203.25h-1.195c-.13 2.5-.756 4.245-1.876 5.237-.84.754-2.51 1.13-5.01 1.13h-9.631v-17.324h12.024c2.176 0 3.695.162 4.556.485 1.078.452 1.89 1.11 2.441 1.97.55.864 1.05 2.448 1.504 4.752h1.26l-.485-9.6h-33.778v1.196h1.552c1.811 0 3.103.432 3.878 1.294.561.647.84 2.359.84 5.138v28.476c0 2.134-.124 3.546-.371 4.235-.248.691-.717 1.208-1.406 1.552a6.146 6.146 0 0 1-2.94.744h-1.553v1.195h33.778l3.781-10.99h-1.292c-1.4 2.695-2.77 4.71-4.106 6.045zm39.252-1.212c-1.12 1.26-2.359 2.139-3.716 2.634-1.359.496-3.718.744-7.079.744h-3.2c-2.822 0-4.505-.11-5.043-.323-.538-.217-.937-.55-1.195-1.002-.345-.668-.517-1.897-.517-3.685v-27.54c0-2.606.172-4.255.517-4.944.344-.691.985-1.26 1.922-1.714.939-.452 2.571-.668 4.899-.647V189.9h-19.847v1.196h1.649c1.657 0 2.907.475 3.75 1.422.602.691.903 2.403.903 5.14v28.283c0 2.5-.225 4.094-.679 4.783-.796 1.208-2.121 1.811-3.974 1.811h-1.65v1.195h33.939l3.75-11.894-1.068-.226c-1.12 2.714-2.241 4.703-3.36 5.963z" fill="#e05330"/></svg>